:SAMPLES-PER-SECOND 30
:FULLY-SPECIFIED
:DEGREES
1183
root  70.5264 40.3895 -5.28639 -55.3313 -85.9853 55.6507
RightUpLeg  -4.38782 -14.2604 -13.5562
RightLeg  5.58047 -19.8656 4.15351
RightFoot  4.40635 -0.241237 1.96172
RightToes  -1.16417e-010 0 -3.6325e-017
Spine  13.9003 -1.12183 2.91161
Spine1  9.04846 -0.15967 -2.59602
HEad  -22.2459 5.13359 -3.59902
LeftShoulder1  11.2034 -18.2007 -44.9618
LeftArm  -6.9 -45.609 -25.0018
LeftForeArm  19.0973 -24.7387 -4.15389
LeftHand  -0.244104 0.0205437 5.32207
RightShoulder  7.27181 13.2607 37.3419
RightArm  -5.95015 35.9432 31.3196
RightForeArm  -17.5807 33.6959 8.43004
RightHand  -3.65344 9.91679 -27.5254
LeftUpLeg  -0.348924 5.40962 3.55368
LeftLeg  -1.24683 18.5118 -5.03344
LeftFoot  3.87274 0.25541 -2.0883
LeftToes  -2.09216e-011 1.96776e-011 -5.83545e-012
1184
root  70.6615 40.3836 -5.30162 -55.3466 -85.9629 55.5017
RightUpLeg  -4.49774 -14.201 -13.5037
RightLeg  5.69562 -19.9532 4.03163
RightFoot  4.5299 -0.233919 1.89995
RightToes  -1.16417e-010 0 -3.6325e-017
Spine  14.3183 -1.08108 2.99736
Spine1  8.47143 -0.0828948 -2.69318
HEad  -22.5264 5.26568 -3.53032
LeftShoulder1  11.0128 -18.3027 -43.9411
LeftArm  -10.6034 -49.3528 -25.2669
LeftForeArm  24.0451 -29.2493 -5.0214
LeftHand  -0.244104 0.0205437 5.32207
RightShoulder  6.85909 12.9406 35.7226
RightArm  -7.58982 40.4576 31.3932
RightForeArm  -15.0346 37.966 9.59129
RightHand  -3.69922 10.0631 -27.591
LeftUpLeg  -0.449912 5.43799 3.56637
LeftLeg  -1.13468 18.4559 -5.02531
LeftFoot  4.00624 0.247479 -2.01746
LeftToes  -2.09216e-011 1.96776e-011 -5.83545e-012
1185
root  70.7929 40.3718 -5.30643 -56.4709 -85.9994 56.4361
RightUpLeg  -4.64084 -14.1674 -13.4544
RightLeg  5.89064 -19.8991 3.89605
RightFoot  4.63452 -0.219801 1.79189
RightToes  -1.16417e-010 0 -3.6325e-017
Spine  14.6379 -1.12596 3.20908
Spine1  8.02386 -0.0142845 -3.051
HEad  -22.7406 5.4672 -3.59031
LeftShoulder1  10.8095 -18.3879 -42.9026
LeftArm  -13.3465 -52.439 -25.4776
LeftForeArm  25.7493 -32.4317 -5.68308
LeftHand  -0.244104 0.0205437 5.32207
RightShoulder  6.44542 12.7272 33.7547
RightArm  -8.88412 44.8585 32.2391
RightForeArm  -12.7657 40.6605 10.3775
RightHand  -3.31173 9.15461 -26.2982
LeftUpLeg  -0.550629 5.47471 3.57336
LeftLeg  -0.926191 18.5098 -4.98998
LeftFoot  4.04245 0.231867 -1.89871
LeftToes  -2.09216e-011 1.96776e-011 -5.83545e-012
1186
root  70.9132 40.3569 -5.29949 -57.1932 -85.9557 56.9702
RightUpLeg  -4.75203 -14.2558 -13.5232
RightLeg  6.11159 -19.7519 3.82443
RightFoot  4.69532 -0.203515 1.67258
RightToes  -1.16417e-010 0 -3.6325e-017
Spine  14.7766 -1.23811 3.50497
Spine1  7.81817 0.0489202 -3.61968
HEad  -22.7554 5.69056 -3.43085
LeftShoulder1  10.5902 -18.4293 -41.8853
LeftArm  -15.5435 -55.0012 -25.8802
LeftForeArm  24.9509 -33.8291 -6.08085
LeftHand  -0.244104 0.0205437 5.32207
RightShoulder  6.12188 12.6729 31.8889
RightArm  -10.1859 48.5615 33.2534
RightForeArm  -12.1712 42.5519 11.0272
RightHand  -2.83428 7.76456 -24.9531
LeftUpLeg  -0.628297 5.46289 3.50214
LeftLeg  -0.752103 18.5604 -4.96261
LeftFoot  4.06339 0.211702 -1.74793
LeftToes  -2.09216e-011 1.96776e-011 -5.83545e-012
1187
root  71.0142 40.3429 -5.28326 -57.3746 -85.8653 56.9727
RightUpLeg  -4.79321 -14.4043 -13.6657
RightLeg  6.29262 -19.572 3.8089
RightFoot  4.70828 -0.194176 1.60504
RightToes  -1.16417e-010 0 -3.6325e-017
Spine  14.7999 -1.30841 3.80306
Spine1  7.77833 0.165946 -4.21767
HEad  -22.5228 5.8329 -3.06975
LeftShoulder1  10.394 -18.4198 -41.0668
LeftArm  -17.1144 -56.9431 -26.6635
LeftForeArm  23.4015 -33.9367 -6.20027
LeftHand  -0.244104 0.0205437 5.32207
RightShoulder  5.89447 12.5487 30.7559
RightArm  -10.7688 51.8569 34.1764
RightForeArm  -13.003 43.2681 11.3473
RightHand  -2.4968 6.70545 -23.9384
LeftUpLeg  -0.65291 5.43314 3.40055
LeftLeg  -0.636012 18.5509 -4.95592
LeftFoot  4.05338 0.197787 -1.64578
LeftToes  -2.09216e-011 1.96776e-011 -5.83545e-012
1188
root  71.1038 40.331 -5.26001 -57.6528 -85.8432 57.0685
RightUpLeg  -4.78258 -14.4889 -13.7524
RightLeg  6.39856 -19.4196 3.7857
RightFoot  4.72783 -0.1935 1.60713
RightToes  -1.16417e-010 0 -3.6325e-017
Spine  14.8589 -1.26844 4.0838
Spine1  7.6186 0.351796 -4.65725
HEad  -22.0574 5.77434 -2.93661
LeftShoulder1  10.339 -18.4577 -40.7537
LeftArm  -17.967 -57.7529 -27.6955
LeftForeArm  22.2545 -33.9118 -6.26112
LeftHand  -0.244104 0.0205437 5.32207
RightShoulder  5.75554 12.3687 30.2919
RightArm  -9.63885 54.8643 35.5788
RightForeArm  -14.4587 42.4674 11.1291
RightHand  -2.22703 5.97369 -22.7616
LeftUpLeg  -0.644554 5.4381 3.35037
LeftLeg  -0.499413 18.5324 -4.9355
LeftFoot  3.94696 0.194828 -1.63065
LeftToes  -2.09216e-011 1.96776e-011 -5.83545e-012
1189
root  71.1892 40.3209 -5.23162 -58.5007 -85.9309 57.7231
RightUpLeg  -4.73782 -14.454 -13.7361
RightLeg  6.40293 -19.3178 3.73918
RightFoot  4.81216 -0.196519 1.63923
RightToes  -1.16417e-010 0 -3.6325e-017
Spine  14.9471 -1.12986 4.36837
Spine1  7.28875 0.579757 -4.88424
HEad  -21.3083 5.66285 -3.07145
LeftShoulder1  10.494 -18.591 -41.1442
LeftArm  -18.3335 -56.9267 -28.6777
LeftForeArm  21.1542 -34.5953 -6.50502
LeftHand  -0.244104 0.0205437 5.32207
RightShoulder  5.72856 12.4673 29.893
RightArm  -7.12706 56.7414 37.7729
RightForeArm  -16.5511 41.066 10.7284
RightHand  -1.94736 5.1073 -21.5851
LeftUpLeg  -0.644032 5.46933 3.35943
LeftLeg  -0.274609 18.5952 -4.85703
LeftFoot  3.75404 0.197156 -1.66496
LeftToes  -2.09216e-011 1.96776e-011 -5.83545e-012
1190
root  71.2619 40.3153 -5.20256 -60.4366 -86.0776 59.4462
RightUpLeg  -4.61699 -14.3398 -13.6908
RightLeg  6.26246 -19.2057 3.73244
RightFoot  4.96126 -0.197576 1.63414
RightToes  -1.16417e-010 0 -3.6325e-017
Spine  14.8496 -0.936748 4.64205
Spine1  7.30806 0.86368 -5.07735
HEad  -20.4991 5.53536 -3.08623
LeftShoulder1  10.7262 -18.6679 -41.9708
LeftArm  -18.7722 -54.7128 -29.6146
LeftForeArm  19.4527 -35.8724 -6.94968
LeftHand  -0.244104 0.0205437 5.32207
RightShoulder  5.79215 12.8206 29.4949
RightArm  -4.12493 57.1494 40.4368
RightForeArm  -19.4254 39.8087 10.4369
RightHand  -1.6946 4.09644 -20.7952
LeftUpLeg  -0.59493 5.49133 3.37762
LeftLeg  -0.0429804 18.7634 -4.7453
LeftFoot  3.56874 0.20144 -1.70672
LeftToes  -2.09216e-011 1.96776e-011 -5.83545e-012
1191
root  71.3162 40.3125 -5.17185 -64.4332 -86.2478 63.2031
RightUpLeg  -4.43854 -14.2397 -13.6862
RightLeg  6.05456 -18.944 3.78267
RightFoot  5.10403 -0.194872 1.58863
RightToes  -1.16417e-010 0 -3.6325e-017
Spine  14.5058 -0.733482 4.94575
Spine1  8.00283 1.2533 -5.52903
HEad  -19.8655 5.34122 -2.83658
LeftShoulder1  10.8794 -18.5724 -42.8119
LeftArm  -19.5495 -51.66 -30.6723
LeftForeArm  17.1974 -37.5011 -7.54525
LeftHand  -0.244104 0.0205437 5.32207
RightShoulder  5.89249 13.0297 29.6555
RightArm  -0.04268 56.7949 43.6722
RightForeArm  -22.8905 38.2701 10.0887
RightHand  -1.46485 3.23258 -19.7763
LeftUpLeg  -0.434622 5.51588 3.38583
LeftLeg  0.134893 19.0238 -4.66338
LeftFoot  3.38806 0.209709 -1.78251
LeftToes  -2.09216e-011 1.96776e-011 -5.83545e-012
1192
root  71.354 40.3069 -5.13043 -71.4372 -86.4495 69.958
RightUpLeg  -4.28397 -14.1735 -13.7006
RightLeg  5.89501 -18.495 3.83595
RightFoot  5.18603 -0.198415 1.61025
RightToes  -1.16417e-010 0 -3.6325e-017
Spine  14.2139 -0.568534 5.44669
Spine1  8.7542 1.74938 -6.4108
HEad  -19.3157 4.93921 -2.53987
LeftShoulder1  11.0196 -18.4189 -43.7221
LeftArm  -20.0688 -47.3076 -31.6119
LeftForeArm  14.564 -40.2239 -8.54108
LeftHand  -0.244104 0.0205437 5.32207
RightShoulder  6.09742 13.1672 30.6027
RightArm  5.6044 55.4512 47.3748
RightForeArm  -27.1941 36.7956 9.79822
RightHand  -1.25848 2.68135 -18.2014
LeftUpLeg  -0.183359 5.60028 3.42273
LeftLeg  0.290613 19.3762 -4.65334
LeftFoot  3.11833 0.226065 -1.93166
LeftToes  -2.09216e-011 1.96776e-011 -5.83545e-012
